<mxfile host="Electron" agent="Mozilla/5.0 (X11; Linux x86_64) AppleWebKit/537.36 (KHTML, like Gecko) draw.io/26.0.4 Chrome/128.0.6613.186 Electron/32.2.5 Safari/537.36" version="26.0.4">
  <diagram name="Page-1" id="4C10sp9fxdS6wvOQBJcr">
    <mxGraphModel dx="1207" dy="1198" grid="1" gridSize="10" guides="1" tooltips="1" connect="1" arrows="1" fold="1" page="1" pageScale="1" pageWidth="850" pageHeight="1100" math="0" shadow="0">
      <root>
        <mxCell id="0" />
        <mxCell id="1" parent="0" />
        <mxCell id="lOP77Rp3vLDErWiEmWYr-9" value="&amp;nbsp;REST HTTPS&amp;nbsp;" style="edgeStyle=orthogonalEdgeStyle;rounded=0;orthogonalLoop=1;jettySize=auto;html=1;startArrow=classic;startFill=1;" edge="1" parent="1" source="lOP77Rp3vLDErWiEmWYr-1" target="lOP77Rp3vLDErWiEmWYr-2">
          <mxGeometry relative="1" as="geometry" />
        </mxCell>
        <mxCell id="lOP77Rp3vLDErWiEmWYr-1" value="Mobile&lt;div&gt;client&lt;/div&gt;" style="sketch=0;outlineConnect=0;fontColor=#232F3E;gradientColor=none;fillColor=#232F3D;strokeColor=none;dashed=0;verticalLabelPosition=middle;verticalAlign=middle;align=right;html=1;fontSize=12;fontStyle=0;aspect=fixed;pointerEvents=1;shape=mxgraph.aws4.mobile_client;labelPosition=left;spacingRight=5;" vertex="1" parent="1">
          <mxGeometry x="120" y="330" width="41" height="78" as="geometry" />
        </mxCell>
        <mxCell id="lOP77Rp3vLDErWiEmWYr-10" value="&amp;nbsp;invoke&amp;nbsp;" style="edgeStyle=orthogonalEdgeStyle;rounded=0;orthogonalLoop=1;jettySize=auto;html=1;startArrow=classic;startFill=1;" edge="1" parent="1" source="lOP77Rp3vLDErWiEmWYr-2" target="lOP77Rp3vLDErWiEmWYr-3">
          <mxGeometry relative="1" as="geometry" />
        </mxCell>
        <mxCell id="lOP77Rp3vLDErWiEmWYr-18" style="edgeStyle=orthogonalEdgeStyle;rounded=0;orthogonalLoop=1;jettySize=auto;html=1;" edge="1" parent="1" target="lOP77Rp3vLDErWiEmWYr-2">
          <mxGeometry relative="1" as="geometry">
            <mxPoint x="450" y="369" as="sourcePoint" />
            <Array as="points">
              <mxPoint x="451" y="280" />
              <mxPoint x="369" y="280" />
            </Array>
          </mxGeometry>
        </mxCell>
        <mxCell id="lOP77Rp3vLDErWiEmWYr-2" value="Amazon API Gateway" style="sketch=0;points=[[0,0,0],[0.25,0,0],[0.5,0,0],[0.75,0,0],[1,0,0],[0,1,0],[0.25,1,0],[0.5,1,0],[0.75,1,0],[1,1,0],[0,0.25,0],[0,0.5,0],[0,0.75,0],[1,0.25,0],[1,0.5,0],[1,0.75,0]];outlineConnect=0;fontColor=#232F3E;fillColor=#E7157B;strokeColor=#ffffff;dashed=0;verticalLabelPosition=top;verticalAlign=bottom;align=right;html=1;fontSize=12;fontStyle=0;aspect=fixed;shape=mxgraph.aws4.resourceIcon;resIcon=mxgraph.aws4.api_gateway;labelPosition=left;" vertex="1" parent="1">
          <mxGeometry x="330" y="330" width="78" height="78" as="geometry" />
        </mxCell>
        <mxCell id="lOP77Rp3vLDErWiEmWYr-12" value="&amp;nbsp;Query / Read&amp;nbsp;" style="edgeStyle=orthogonalEdgeStyle;rounded=0;orthogonalLoop=1;jettySize=auto;html=1;" edge="1" parent="1" source="lOP77Rp3vLDErWiEmWYr-5" target="lOP77Rp3vLDErWiEmWYr-3">
          <mxGeometry relative="1" as="geometry" />
        </mxCell>
        <mxCell id="lOP77Rp3vLDErWiEmWYr-3" value="Lambda" style="sketch=0;points=[[0,0,0],[0.25,0,0],[0.5,0,0],[0.75,0,0],[1,0,0],[0,1,0],[0.25,1,0],[0.5,1,0],[0.75,1,0],[1,1,0],[0,0.25,0],[0,0.5,0],[0,0.75,0],[1,0.25,0],[1,0.5,0],[1,0.75,0]];outlineConnect=0;fontColor=#232F3E;fillColor=#ED7100;strokeColor=#ffffff;dashed=0;verticalLabelPosition=bottom;verticalAlign=top;align=center;html=1;fontSize=12;fontStyle=0;aspect=fixed;shape=mxgraph.aws4.resourceIcon;resIcon=mxgraph.aws4.lambda;" vertex="1" parent="1">
          <mxGeometry x="580" y="330" width="78" height="78" as="geometry" />
        </mxCell>
        <mxCell id="lOP77Rp3vLDErWiEmWYr-4" value="DynamoDB" style="sketch=0;points=[[0,0,0],[0.25,0,0],[0.5,0,0],[0.75,0,0],[1,0,0],[0,1,0],[0.25,1,0],[0.5,1,0],[0.75,1,0],[1,1,0],[0,0.25,0],[0,0.5,0],[0,0.75,0],[1,0.25,0],[1,0.5,0],[1,0.75,0]];outlineConnect=0;fontColor=#232F3E;fillColor=#C925D1;strokeColor=#ffffff;dashed=0;verticalLabelPosition=bottom;verticalAlign=top;align=center;html=1;fontSize=12;fontStyle=0;aspect=fixed;shape=mxgraph.aws4.resourceIcon;resIcon=mxgraph.aws4.dynamodb;" vertex="1" parent="1">
          <mxGeometry x="1060" y="330" width="78" height="78" as="geometry" />
        </mxCell>
        <mxCell id="lOP77Rp3vLDErWiEmWYr-11" style="edgeStyle=orthogonalEdgeStyle;rounded=0;orthogonalLoop=1;jettySize=auto;html=1;" edge="1" parent="1" source="lOP77Rp3vLDErWiEmWYr-5" target="lOP77Rp3vLDErWiEmWYr-4">
          <mxGeometry relative="1" as="geometry" />
        </mxCell>
        <mxCell id="lOP77Rp3vLDErWiEmWYr-5" value="DAX (Caching Layer)" style="sketch=0;outlineConnect=0;fontColor=#232F3E;gradientColor=none;fillColor=#C925D1;strokeColor=none;dashed=0;verticalLabelPosition=bottom;verticalAlign=top;align=center;html=1;fontSize=12;fontStyle=0;aspect=fixed;pointerEvents=1;shape=mxgraph.aws4.dynamodb_dax;" vertex="1" parent="1">
          <mxGeometry x="820" y="333" width="78" height="72" as="geometry" />
        </mxCell>
        <mxCell id="lOP77Rp3vLDErWiEmWYr-16" value="Verify authentication" style="edgeStyle=orthogonalEdgeStyle;rounded=0;orthogonalLoop=1;jettySize=auto;html=1;startArrow=classic;startFill=1;" edge="1" parent="1" source="lOP77Rp3vLDErWiEmWYr-6" target="lOP77Rp3vLDErWiEmWYr-2">
          <mxGeometry relative="1" as="geometry" />
        </mxCell>
        <mxCell id="lOP77Rp3vLDErWiEmWYr-6" value="Amazon Cognito" style="sketch=0;points=[[0,0,0],[0.25,0,0],[0.5,0,0],[0.75,0,0],[1,0,0],[0,1,0],[0.25,1,0],[0.5,1,0],[0.75,1,0],[1,1,0],[0,0.25,0],[0,0.5,0],[0,0.75,0],[1,0.25,0],[1,0.5,0],[1,0.75,0]];outlineConnect=0;fontColor=#232F3E;fillColor=#DD344C;strokeColor=#ffffff;dashed=0;verticalLabelPosition=bottom;verticalAlign=top;align=center;html=1;fontSize=12;fontStyle=0;aspect=fixed;shape=mxgraph.aws4.resourceIcon;resIcon=mxgraph.aws4.cognito;" vertex="1" parent="1">
          <mxGeometry x="330" y="570" width="78" height="78" as="geometry" />
        </mxCell>
        <mxCell id="lOP77Rp3vLDErWiEmWYr-14" value="Store / Retrive files" style="edgeStyle=orthogonalEdgeStyle;rounded=0;orthogonalLoop=1;jettySize=auto;html=1;startArrow=classic;startFill=1;" edge="1" parent="1" source="lOP77Rp3vLDErWiEmWYr-7" target="lOP77Rp3vLDErWiEmWYr-1">
          <mxGeometry x="0.2779" relative="1" as="geometry">
            <mxPoint y="1" as="offset" />
          </mxGeometry>
        </mxCell>
        <mxCell id="lOP77Rp3vLDErWiEmWYr-7" value="Amazon S3" style="sketch=0;points=[[0,0,0],[0.25,0,0],[0.5,0,0],[0.75,0,0],[1,0,0],[0,1,0],[0.25,1,0],[0.5,1,0],[0.75,1,0],[1,1,0],[0,0.25,0],[0,0.5,0],[0,0.75,0],[1,0.25,0],[1,0.5,0],[1,0.75,0]];outlineConnect=0;fontColor=#232F3E;fillColor=#7AA116;strokeColor=#ffffff;dashed=0;verticalLabelPosition=bottom;verticalAlign=top;align=center;html=1;fontSize=12;fontStyle=0;aspect=fixed;shape=mxgraph.aws4.resourceIcon;resIcon=mxgraph.aws4.s3;" vertex="1" parent="1">
          <mxGeometry x="330" y="90" width="78" height="78" as="geometry" />
        </mxCell>
        <mxCell id="lOP77Rp3vLDErWiEmWYr-8" value="Permissions" style="sketch=0;outlineConnect=0;fontColor=#232F3E;gradientColor=none;fillColor=#DD344C;strokeColor=none;dashed=0;verticalLabelPosition=bottom;verticalAlign=top;align=center;html=1;fontSize=12;fontStyle=0;aspect=fixed;pointerEvents=1;shape=mxgraph.aws4.permissions;" vertex="1" parent="1">
          <mxGeometry x="200" y="168" width="33.38" height="42" as="geometry" />
        </mxCell>
        <mxCell id="lOP77Rp3vLDErWiEmWYr-15" style="edgeStyle=orthogonalEdgeStyle;rounded=0;orthogonalLoop=1;jettySize=auto;html=1;entryX=0;entryY=0.5;entryDx=0;entryDy=0;entryPerimeter=0;startArrow=classic;startFill=1;" edge="1" parent="1" source="lOP77Rp3vLDErWiEmWYr-1" target="lOP77Rp3vLDErWiEmWYr-6">
          <mxGeometry relative="1" as="geometry">
            <Array as="points">
              <mxPoint x="141" y="609" />
            </Array>
          </mxGeometry>
        </mxCell>
        <mxCell id="lOP77Rp3vLDErWiEmWYr-19" value="Caching of Responses" style="text;html=1;align=center;verticalAlign=middle;resizable=0;points=[];autosize=1;strokeColor=none;fillColor=none;" vertex="1" parent="1">
          <mxGeometry x="340" y="250" width="140" height="30" as="geometry" />
        </mxCell>
      </root>
    </mxGraphModel>
  </diagram>
</mxfile>
